P3
# CREATOR: GIMP PNM Filter Version 1.1
# test
# test
# test
50 50
255
102
51
0
204
102
51
255
174
76
255
204
102
255
204
51
255
204
102
255
204
102
255
174
76
255
192
84
255
192
84
255
153
51
255
204
102
255
204
102
255
204
102
255
174
76
255
204
102
255
204
153
255
204
51
255
204
102
255
204
102
255
204
102
255
204
102
255
174
76
255
192
84
255
174
76
255
204
102
255
204
102
255
204
102
255
174
76
255
204
102
255
204
102
255
204
102
255
204
102
255
204
102
255
174
76
255
204
102
255
204
102
255
192
84
255
204
153
255
204
102
255
204
102
255
174
76
255
204
102
255
204
102
255
204
102
255
204
51
255
192
84
255
192
84
255
204
102
255
204
102
102
51
0
204
102
51
255
174
76
255
204
102
255
204
51
255
204
102
255
204
102
255
174
76
255
192
84
255
192
84
255
153
51
255
204
102
255
204
102
255
204
102
255
174
76
255
204
102
255
204
153
255
204
51
255
204
102
255
204
102
255
204
102
255
174
76
255
192
84
255
192
84
255
174
76
255
204
102
255
204
102
255
204
102
255
174
76
255
204
102
255
204
102
255
204
102
255
204
102
255
204
102
255
174
76
255
204
102
255
204
102
255
192
84
255
204
153
255
204
102
255
204
102
255
204
102
255
174
76
255
204
102
255
204
102
255
204
51
255
192
84
255
192
84
255
204
153
255
204
102
102
51
0
204
102
51
255
174
76
255
204
102
255
204
51
255
204
102
255
204
102
255
174
76
255
192
84
255
192
84
255
153
51
255
204
102
255
204
102
255
204
102
255
174
76
255
204
102
255
204
153
255
204
51
255
204
102
255
204
102
255
204
102
255
174
76
255
192
84
255
192
84
255
174
76
255
204
102
255
204
102
255
204
102
255
174
76
255
204
102
255
204
102
255
204
102
255
204
102
255
204
102
255
174
76
255
204
102
255
204
102
255
192
84
255
192
84
255
204
102
255
204
102
255
204
102
255
174
76
255
204
102
255
204
102
255
204
51
255
192
84
255
192
84
255
204
153
255
204
102
102
51
0
204
102
51
255
174
76
255
204
102
255
204
51
255
204
102
255
204
102
255
174
76
255
192
84
255
192
84
255
153
51
255
204
102
255
204
102
255
204
102
255
174
76
255
204
102
255
204
153
255
204
51
255
204
102
255
204
102
255
204
102
255
174
76
255
192
84
255
192
84
255
174
76
255
204
102
255
204
102
255
204
102
255
174
76
255
204
102
255
204
102
255
204
102
255
204
102
255
174
76
255
204
102
255
204
102
255
204
102
255
204
102
255
192
84
255
192
84
255
204
102
255
204
102
255
174
76
255
204
102
255
204
102
255
204
51
255
192
84
255
192
84
255
204
153
255
204
102
102
51
0
204
102
51
255
174
76
255
204
102
255
204
51
255
204
102
255
204
102
255
174
76
255
192
84
255
192
84
255
153
51
255
204
102
255
204
102
255
174
76
255
204
102
255
204
102
255
204
153
255
204
51
255
204
102
255
204
102
255
204
102
255
174
76
255
192
84
255
192
84
255
174
76
255
204
102
255
204
102
255
204
102
255
174
76
255
204
102
255
204
102
255
204
102
255
174
76
255
204
102
255
204
102
255
174
76
255
204
102
255
204
102
255
192
84
255
192
84
255
204
102
255
204
102
255
174
76
255
204
102
255
204
102
255
204
51
255
192
84
255
192
84
255
204
153
255
204
102
102
51
0
204
102
51
255
174
76
255
204
102
255
204
51
255
204
102
255
204
102
255
174
76
255
192
84
255
192
84
255
153
51
255
204
102
255
204
102
255
174
76
255
204
102
255
204
102
255
204
153
255
204
51
255
204
102
255
204
102
255
204
102
255
174
76
255
192
84
255
192
84
255
174
76
255
204
102
255
204
102
255
204
102
255
174
76
255
204
102
255
204
102
255
204
102
255
174
76
255
204
102
255
204
102
255
174
76
255
174
76
255
204
102
255
192
84
255
192
84
255
204
102
255
204
102
255
174
76
255
204
102
255
204
102
255
204
51
255
192
84
255
192
84
255
204
153
255
204
102
102
51
0
204
102
51
255
174
76
255
204
102
255
204
51
255
204
102
255
204
102
255
174
76
255
192
84
255
192
84
255
153
51
255
204
102
255
204
102
255
174
76
255
204
102
255
204
102
255
204
153
255
204
51
255
204
102
255
204
102
255
204
102
255
174
76
255
192
84
255
192
84
255
174
76
255
204
102
255
204
102
255
204
102
255
174
76
255
204
102
255
204
102
255
204
102
255
174
76
255
204
102
255
204
102
255
174
76
255
174
76
255
204
102
255
192
84
255
192
84
255
204
102
255
204
102
255
174
76
255
204
102
255
204
102
255
204
51
255
192
84
255
192
84
255
204
153
255
204
102
102
51
0
204
102
51
255
174
76
255
204
102
255
204
51
255
204
102
255
204
102
255
174
76
255
192
84
255
192
84
255
153
51
255
204
102
255
204
102
255
174
76
255
204
102
255
204
102
255
204
153
255
204
51
255
204
102
255
204
102
255
204
102
255
204
102
255
174
76
255
192
84
255
174
76
255
204
102
255
204
102
255
204
102
255
174
76
255
204
102
255
204
102
255
174
76
255
204
102
255
204
102
255
174
76
255
204
102
255
174
76
255
204
102
255
192
84
255
192
84
255
204
102
255
204
102
255
174
76
255
204
102
255
204
102
255
204
51
255
192
84
255
192
84
255
204
153
255
204
102
102
51
0
204
102
51
255
174
76
255
204
102
255
204
51
255
204
102
255
204
102
255
174
76
255
192
84
255
192
84
255
153
51
255
204
102
255
204
102
255
174
76
255
204
102
255
204
102
255
204
153
255
204
51
255
204
102
255
204
102
255
204
102
255
204
102
255
174
76
255
192
84
255
174
76
255
204
102
255
204
102
255
204
102
255
174
76
255
204
102
255
204
102
255
174
76
255
204
102
255
204
102
255
174
76
255
204
102
255
174
76
255
204
102
255
204
153
255
192
84
255
204
102
255
204
102
255
174
76
255
204
102
255
204
102
255
204
51
255
192
84
255
192
84
255
204
153
255
204
102
102
51
0
204
102
51
255
174
76
255
204
102
255
204
51
255
204
102
255
204
102
255
174
76
255
192
84
255
192
84
255
153
51
255
204
102
255
204
102
255
174
76
255
204
102
255
204
102
255
204
153
255
204
51
255
204
102
255
204
102
255
204
102
255
204
102
255
174
76
255
192
84
255
174
76
255
204
102
255
204
102
255
204
102
255
174
76
255
204
102
255
174
76
255
204
102
255
204
102
255
204
102
255
174
76
255
204
51
255
174
76
255
204
102
255
204
102
255
192
84
255
204
102
255
204
102
255
174
76
255
204
102
255
204
102
255
204
51
255
192
84
255
192
84
255
204
153
255
204
102
102
51
0
204
102
51
255
174
76
255
204
102
255
204
51
255
204
102
255
204
102
255
174
76
255
192
84
255
192
84
255
153
51
255
204
102
255
204
102
255
174
76
255
204
102
255
204
102
255
204
153
255
204
51
255
204
102
255
204
102
255
204
102
255
204
102
255
174
76
255
192
84
255
174
76
255
204
102
255
204
102
255
204
102
255
174
76
255
204
102
255
174
76
255
204
102
255
204
102
255
204
102
255
174
76
255
204
51
255
204
102
255
174
76
255
204
102
255
192
84
255
204
153
255
204
102
255
174
76
255
204
102
255
204
102
255
204
51
255
192
84
255
192
84
255
204
153
255
204
102
102
51
0
204
102
51
255
174
76
255
204
102
255
204
51
255
204
102
255
204
102
255
174
76
255
192
84
255
192
84
255
153
51
255
204
102
255
204
102
255
174
76
255
204
102
255
204
102
255
204
153
255
204
51
255
204
102
255
204
102
255
204
102
255
204
102
255
174
76
255
192
84
255
174
76
255
204
102
255
204
102
255
204
102
255
174
76
255
204
102
255
174
76
255
204
102
255
204
102
255
153
51
255
204
102
255
204
51
255
204
102
255
174
76
255
204
102
255
192
84
255
192
84
255
204
102
255
174
76
255
204
102
255
204
102
255
204
51
255
192
84
255
192
84
255
204
153
255
204
102
102
51
0
204
102
51
255
174
76
255
204
102
255
204
51
255
204
102
255
204
102
255
174
76
255
192
84
255
192
84
255
153
51
255
204
102
255
204
102
255
174
76
255
204
102
255
204
102
255
204
153
255
204
51
255
204
102
255
204
102
255
204
102
255
204
102
255
174
76
255
192
84
255
174
76
255
204
102
255
204
102
255
204
102
255
174
76
255
204
102
255
174
76
255
204
102
255
204
102
255
153
51
255
204
102
255
204
51
255
204
102
255
174
76
255
204
102
255
192
84
255
192
84
255
204
102
255
174
76
255
204
102
255
204
102
255
204
51
255
192
84
255
192
84
255
204
153
255
204
102
102
51
0
204
102
51
255
174
76
255
204
102
255
204
51
255
204
102
255
204
102
255
174
76
255
192
84
255
192
84
255
153
51
255
204
102
255
204
102
255
174
76
255
204
102
255
204
102
255
204
153
255
204
51
255
204
102
255
204
102
255
204
102
255
204
102
255
174
76
255
192
84
255
174
76
255
204
102
255
204
102
255
204
102
255
174
76
255
204
102
255
174
76
255
204
102
255
204
102
255
153
51
255
204
102
255
204
51
255
204
102
255
174
76
255
204
102
255
204
102
255
192
84
255
204
102
255
174
76
255
204
102
255
204
102
255
204
51
255
192
84
255
192
84
255
204
153
255
204
102
102
51
0
204
102
51
255
174
76
255
204
102
255
204
51
255
204
102
255
204
102
255
174
76
255
192
84
255
192
84
255
153
51
255
204
102
255
204
102
255
174
76
255
204
102
255
204
102
255
204
153
255
204
51
255
204
102
255
204
102
255
204
102
255
204
102
255
174
76
255
192
84
255
174
76
255
204
102
255
204
102
255
204
102
255
174
76
255
204
102
255
174
76
255
204
102
255
204
102
255
153
51
255
204
102
255
204
102
255
204
102
255
204
102
255
153
51
255
204
102
255
192
84
255
204
102
255
174
76
255
204
102
255
204
102
255
204
51
255
192
84
255
192
84
255
204
153
255
204
102
102
51
0
204
102
51
255
174
76
255
204
102
255
204
51
255
204
102
255
204
102
255
174
76
255
192
84
255
192
84
255
153
51
255
204
102
255
204
102
255
174
76
255
204
102
255
204
102
255
204
153
255
204
51
255
204
102
255
204
102
255
204
102
255
204
102
255
174
76
255
192
84
255
174
76
255
204
102
255
204
102
255
204
102
255
174
76
255
204
102
255
174
76
255
204
102
255
204
102
255
153
51
255
204
102
255
153
51
255
204
51
255
204
102
255
153
51
255
204
102
255
192
84
255
204
102
255
174
76
255
204
102
255
204
102
255
204
51
255
192
84
255
192
84
255
204
153
255
204
102
102
51
0
204
102
51
255
174
76
255
204
102
255
204
51
255
204
102
255
204
102
255
174
76
255
192
84
255
192
84
255
153
51
255
204
102
255
204
102
255
174
76
255
204
102
255
204
102
255
204
153
255
204
51
255
204
102
255
204
102
255
204
102
255
204
102
255
174
76
255
192
84
255
174
76
255
204
102
255
204
102
255
204
102
255
174
76
255
204
102
255
174
76
255
204
102
255
153
51
255
204
51
255
204
102
255
153
51
255
153
51
255
204
102
255
153
51
255
204
102
255
192
84
255
204
102
255
174
76
255
204
102
255
204
102
255
204
51
255
192
84
255
192
84
255
204
153
255
204
102
102
51
0
204
102
51
255
174
76
255
204
102
255
204
51
255
204
102
255
204
102
255
174
76
255
192
84
255
192
84
255
153
51
255
204
102
255
204
102
255
174
76
255
204
102
255
204
102
255
204
153
255
204
51
255
204
102
255
204
102
255
204
102
255
204
102
255
174
76
255
192
84
255
174
76
255
204
102
255
204
102
255
204
102
255
174
76
255
204
102
255
174
76
255
204
102
255
153
51
255
204
102
255
153
51
255
153
51
255
102
0
255
153
51
255
204
102
255
153
51
255
204
102
255
204
153
255
174
76
255
204
102
255
204
102
255
204
51
255
192
84
255
192
84
255
204
153
255
204
102
102
51
0
204
102
51
255
174
76
255
204
102
255
204
51
255
204
102
255
204
102
255
174
76
255
192
84
255
192
84
255
153
51
255
204
102
255
204
102
255
174
76
255
204
102
255
204
102
255
204
153
255
204
51
255
204
102
255
204
102
255
204
102
255
204
102
255
174
76
255
192
84
255
174
76
255
204
102
255
204
102
255
204
102
255
174
76
255
204
102
255
174
76
255
204
102
255
153
51
255
204
102
255
153
0
255
102
0
255
153
51
255
153
51
255
204
102
255
153
51
255
204
102
255
204
153
255
204
102
255
174
76
255
204
102
255
204
51
255
192
84
255
192
84
255
204
153
255
204
102
102
51
0
204
102
51
255
174
76
255
204
102
255
204
51
255
204
102
255
204
102
255
174
76
255
192
84
255
192
84
255
153
51
255
204
102
255
204
102
255
174
76
255
204
102
255
204
102
255
204
153
255
204
51
255
204
102
255
204
102
255
204
102
255
204
102
255
174
76
255
192
84
255
174
76
255
204
102
255
204
102
255
174
76
255
204
102
255
204
102
255
174
76
255
204
102
255
153
51
255
204
102
255
153
51
255
174
76
255
153
51
255
204
102
255
204
102
255
153
51
255
204
102
255
204
153
255
204
102
255
174
76
255
204
102
255
204
51
255
192
84
255
192
84
255
204
153
255
204
102
102
51
0
204
102
51
255
174
76
255
204
102
255
204
51
255
204
102
255
204
102
255
174
76
255
192
84
255
192
84
255
153
51
255
204
102
255
204
102
255
174
76
255
204
102
255
204
102
255
204
153
255
204
51
255
204
102
255
204
102
255
204
102
255
204
102
255
174
76
255
192
84
255
174
76
255
204
102
255
204
102
255
174
76
255
204
102
255
204
102
255
174
76
255
204
102
255
153
51
255
204
102
255
153
51
255
174
76
255
153
51
255
204
102
255
204
102
255
153
51
255
204
102
255
204
153
255
204
102
255
174
76
255
204
102
255
204
51
255
192
84
255
192
84
255
204
153
255
204
102
102
51
0
204
102
51
255
174
76
255
204
102
255
204
51
255
204
102
255
204
102
255
174
76
255
192
84
255
192
84
255
153
51
255
204
102
255
204
102
255
174
76
255
204
102
255
204
102
255
204
153
255
204
51
255
204
102
255
204
102
255
204
102
255
204
102
255
174
76
255
192
84
255
192
84
255
174
76
255
204
102
255
174
76
255
204
102
255
204
102
255
174
76
255
204
102
255
153
51
255
204
102
255
153
51
255
174
76
255
153
0
255
204
102
255
204
102
255
153
51
255
204
102
255
204
153
255
204
102
255
174
76
255
204
102
255
204
51
255
192
84
255
192
84
255
204
153
255
204
102
102
51
0
204
102
51
255
174
76
255
204
102
255
204
51
255
204
102
255
204
102
255
174
76
255
192
84
255
192
84
255
153
51
255
204
102
255
204
102
255
174
76
255
204
102
255
204
102
255
204
153
255
204
51
255
204
102
255
204
102
255
204
102
255
204
102
255
174
76
255
192
84
255
192
84
255
174
76
255
204
102
255
174
76
255
204
102
255
204
102
255
174
76
255
204
102
255
153
51
255
204
102
255
153
51
255
174
76
255
153
51
255
204
102
255
204
102
255
153
51
255
204
102
255
204
153
255
204
102
255
174
76
255
204
102
255
204
51
255
192
84
255
192
84
255
204
153
255
204
102
102
51
0
204
102
51
255
174
76
255
204
102
255
204
51
255
204
102
255
204
102
255
174
76
255
192
84
255
192
84
255
153
51
255
204
102
255
204
102
255
174
76
255
204
102
255
204
102
255
204
153
255
204
51
255
204
102
255
204
102
255
204
102
255
204
102
255
174
76
255
192
84
255
192
84
255
174
76
255
204
102
255
174
76
255
204
102
255
204
102
255
174
76
255
204
102
255
153
51
255
204
102
255
153
51
255
174
76
255
153
0
255
204
102
255
153
51
255
204
102
255
204
102
255
204
153
255
204
102
255
174
76
255
204
102
255
204
51
255
192
84
255
192
84
255
204
153
255
204
102
102
51
0
204
102
51
255
174
76
255
204
102
255
204
51
255
204
102
255
204
102
255
174
76
255
192
84
255
192
84
255
153
51
255
204
102
255
204
102
255
174
76
255
204
102
255
204
102
255
204
153
255
204
51
255
204
102
255
204
102
255
204
102
255
204
102
255
174
76
255
192
84
255
192
84
255
174
76
255
204
102
255
174
76
255
204
102
255
204
102
255
174
76
255
204
102
255
153
51
255
204
102
255
153
51
255
153
51
255
153
51
255
204
102
255
153
51
255
204
102
255
204
102
255
204
153
255
204
102
255
174
76
255
204
102
255
204
51
255
192
84
255
192
84
255
204
153
255
204
102
102
51
0
204
102
51
255
174
76
255
204
102
255
204
51
255
204
102
255
204
102
255
174
76
255
192
84
255
192
84
255
153
51
255
204
102
255
204
102
255
174
76
255
204
102
255
204
102
255
204
153
255
204
51
255
204
102
255
204
102
255
204
102
255
204
102
255
174
76
255
192
84
255
192
84
255
174
76
255
204
102
255
174
76
255
204
102
255
204
102
255
174
76
255
204
102
255
204
102
255
153
51
255
204
102
255
153
51
255
204
102
255
204
102
255
153
51
255
204
102
255
204
102
255
192
84
255
204
102
255
174
76
255
204
102
255
204
51
255
192
84
255
192
84
255
204
153
255
204
102
102
51
0
204
102
51
255
174
76
255
204
102
255
204
51
255
204
102
255
204
102
255
174
76
255
192
84
255
192
84
255
153
51
255
204
102
255
204
102
255
174
76
255
204
102
255
204
102
255
204
153
255
204
51
255
204
102
255
204
102
255
204
102
255
204
102
255
174
76
255
192
84
255
192
84
255
174
76
255
204
102
255
174
76
255
204
102
255
204
102
255
174
76
255
204
102
255
204
102
255
153
51
255
204
102
255
204
102
255
204
102
255
204
102
255
153
51
255
204
102
255
204
102
255
192
84
255
204
102
255
174
76
255
204
102
255
204
51
255
192
84
255
192
84
255
204
153
255
204
102
102
51
0
204
102
51
255
174
76
255
204
102
255
204
51
255
204
102
255
204
102
255
174
76
255
192
84
255
192
84
255
153
51
255
204
102
255
204
102
255
174
76
255
204
102
255
204
102
255
204
153
255
204
51
255
204
102
255
204
102
255
204
102
255
174
76
255
192
84
255
192
84
255
192
84
255
174
76
255
204
102
255
174
76
255
204
102
255
204
102
255
174
76
255
204
102
255
204
102
255
204
102
255
153
51
255
204
102
255
204
102
255
204
102
255
153
51
255
204
102
255
204
102
255
192
84
255
204
102
255
174
76
255
204
102
255
204
51
255
192
84
255
192
84
255
204
153
255
204
102
102
51
0
204
102
51
255
174
76
255
204
102
255
204
51
255
204
102
255
204
102
255
174
76
255
192
84
255
192
84
255
153
51
255
204
102
255
204
102
255
174
76
255
204
102
255
204
102
255
204
153
255
204
51
255
204
102
255
204
102
255
204
102
255
174
76
255
192
84
255
192
84
255
192
84
255
174
76
255
204
102
255
174
76
255
204
102
255
204
102
255
174
76
255
204
102
255
204
102
255
204
102
255
153
51
255
204
102
255
204
102
255
204
102
255
153
51
255
204
102
255
204
51
255
192
84
255
204
102
255
174
76
255
204
102
255
204
51
255
192
84
255
192
84
255
204
153
255
204
102
102
51
0
204
102
51
255
174
76
255
204
102
255
204
51
255
204
102
255
174
76
255
192
84
255
192
84
255
192
84
255
153
51
255
204
102
255
204
102
255
174
76
255
204
102
255
204
102
255
204
153
255
204
51
255
204
102
255
204
102
255
204
102
255
174
76
255
192
84
255
192
84
255
174
76
255
204
102
255
204
102
255
174
76
255
204
102
255
204
102
255
174
76
255
204
102
255
204
102
255
204
102
255
204
102
255
153
51
255
153
51
255
153
51
255
204
102
255
204
102
255
192
84
255
192
84
255
204
102
255
174
76
255
204
102
255
204
51
255
192
84
255
192
84
255
204
153
255
204
102
102
51
0
204
102
51
255
174
76
255
204
102
255
204
51
255
204
102
255
174
76
255
192
84
255
192
84
255
192
84
255
153
51
255
204
102
255
204
102
255
174
76
255
204
102
255
204
102
255
204
153
255
204
51
255
204
102
255
204
102
255
204
102
255
174
76
255
192
84
255
192
84
255
174
76
255
204
102
255
204
102
255
174
76
255
204
102
255
204
102
255
174
76
255
204
102
255
204
102
255
204
51
255
204
102
255
204
102
255
204
102
255
204
102
255
204
102
255
204
51
255
192
84
255
192
84
255
204
102
255
174
76
255
204
102
255
204
51
255
192
84
255
192
84
255
204
153
255
204
102
102
51
0
204
102
51
255
174
76
255
204
102
255
204
51
255
204
102
255
174
76
255
192
84
255
192
84
255
192
84
255
153
51
255
204
102
255
204
102
255
174
76
255
204
102
255
204
102
255
204
153
255
204
51
255
204
102
255
204
102
255
204
102
255
174
76
255
192
84
255
192
84
255
174
76
255
204
102
255
204
102
255
174
76
255
204
102
255
204
102
255
174
76
255
204
102
255
204
102
255
204
51
255
204
51
255
204
102
255
204
102
255
204
102
255
204
102
255
204
51
255
192
84
255
192
84
255
204
102
255
174
76
255
204
102
255
204
51
255
192
84
255
192
84
255
204
153
255
204
102
102
51
0
204
102
51
255
174
76
255
204
102
255
204
51
255
204
102
255
174
76
255
192
84
255
192
84
255
192
84
255
153
51
255
204
102
255
204
102
255
174
76
255
204
102
255
204
102
255
204
153
255
204
51
255
204
102
255
204
102
255
204
102
255
174
76
255
192
84
255
192
84
255
174
76
255
204
102
255
204
102
255
174
76
255
204
102
255
204
102
255
174
76
255
204
102
255
204
102
255
204
102
255
204
51
255
204
102
255
204
102
255
204
102
255
204
102
255
204
51
255
192
84
255
192
84
255
204
102
255
174
76
255
204
102
255
204
51
255
192
84
255
192
84
255
204
153
255
204
102
102
51
0
204
102
51
255
174
76
255
204
102
255
204
51
255
204
102
255
174
76
255
192
84
255
192
84
255
192
84
255
153
51
255
204
102
255
204
102
255
174
76
255
204
102
255
204
102
255
204
153
255
204
51
255
204
102
255
204
102
255
204
102
255
174
76
255
192
84
255
192
84
255
174
76
255
204
102
255
204
102
255
204
102
255
174
76
255
204
102
255
204
102
255
174
76
255
204
102
255
204
102
255
204
102
255
192
84
255
204
102
255
204
102
255
204
51
255
192
84
255
192
84
255
204
102
255
204
102
255
174
76
255
204
102
255
204
51
255
192
84
255
192
84
255
204
102
255
204
102
102
51
0
204
102
51
255
174
76
255
204
102
255
204
51
255
204
102
255
174
76
255
192
84
255
192
84
255
192
84
255
153
51
255
204
102
255
204
102
255
174
76
255
204
102
255
204
102
255
204
153
255
204
51
255
204
102
255
204
102
255
204
102
255
174
76
255
192
84
255
192
84
255
174
76
255
204
102
255
204
102
255
204
102
255
174
76
255
204
102
255
204
102
255
204
102
255
174
76
255
204
102
255
204
102
255
192
84
255
204
51
255
204
102
255
204
51
255
192
84
255
192
84
255
204
102
255
174
76
255
204
102
255
204
102
255
204
51
255
192
84
255
192
84
255
204
102
255
204
102
102
51
0
204
102
51
255
174
76
255
204
102
255
204
51
255
204
102
255
174
76
255
192
84
255
192
84
255
192
84
255
153
51
255
204
102
255
204
102
255
174
76
255
204
102
255
204
102
255
204
153
255
204
51
255
204
102
255
204
102
255
204
102
255
174
76
255
192
84
255
192
84
255
174
76
255
204
102
255
204
102
255
204
102
255
174
76
255
204
102
255
204
102
255
204
102
255
174
76
255
204
102
255
204
102
255
192
84
255
192
84
255
204
102
255
192
84
255
192
84
255
204
102
255
204
102
255
174
76
255
204
102
255
204
102
255
204
51
255
192
84
255
192
84
255
204
102
255
204
102
102
51
0
204
102
51
255
174
76
255
204
102
255
204
51
255
204
102
255
174
76
255
192
84
255
192
84
255
192
84
255
153
51
255
204
102
255
204
102
255
174
76
255
204
102
255
204
102
255
204
153
255
204
51
255
204
102
255
204
102
255
204
102
255
174
76
255
192
84
255
192
84
255
174
76
255
204
102
255
204
102
255
204
102
255
174
76
255
204
102
255
204
102
255
204
102
255
174
76
255
204
102
255
204
102
255
192
84
255
192
84
255
192
84
255
192
84
255
192
84
255
204
102
255
204
102
255
174
76
255
204
102
255
204
102
255
204
51
255
192
84
255
192
84
255
204
102
255
204
102
102
51
0
204
102
51
255
174
76
255
204
102
255
204
51
255
204
102
255
174
76
255
192
84
255
192
84
255
192
84
255
153
51
255
204
102
255
204
102
255
174
76
255
204
102
255
204
102
255
204
153
255
204
51
255
204
102
255
204
102
255
204
102
255
174
76
255
192
84
255
192
84
255
174
76
255
204
102
255
204
102
255
204
102
255
174
76
255
204
102
255
204
102
255
204
102
255
204
102
255
174
76
255
204
102
255
204
102
255
192
84
255
192
84
255
192
84
255
192
84
255
204
102
255
204
102
255
174
76
255
204
102
255
204
102
255
204
51
255
192
84
255
192
84
255
204
102
255
204
102
102
51
0
204
102
51
255
174
76
255
204
102
255
204
51
255
204
102
255
174
76
255
192
84
255
192
84
255
192
84
255
153
51
255
204
102
255
204
102
255
174
76
255
204
102
255
204
102
255
204
153
255
204
51
255
204
102
255
204
102
255
204
102
255
174
76
255
192
84
255
192
84
255
174
76
255
204
102
255
204
102
255
204
102
255
174
76
255
204
102
255
204
102
255
204
102
255
204
102
255
174
76
255
204
102
255
204
102
255
192
84
255
192
84
255
204
102
255
192
84
255
204
102
255
204
102
255
174
76
255
204
102
255
204
102
255
204
51
255
192
84
255
192
84
255
204
102
255
204
102
102
51
0
204
102
51
255
174
76
255
204
102
255
204
51
255
204
102
255
174
76
255
192
84
255
192
84
255
192
84
255
153
51
255
204
102
255
204
102
255
174
76
255
204
102
255
204
102
255
204
153
255
204
51
255
204
102
255
204
102
255
204
102
255
174
76
255
192
84
255
192
84
255
174
76
255
204
102
255
204
102
255
204
102
255
174
76
255
204
102
255
204
102
255
204
102
255
204
102
255
174
76
255
204
102
255
204
102
255
192
84
255
192
84
255
192
84
255
192
84
255
204
102
255
204
102
255
174
76
255
204
102
255
204
102
255
204
51
255
192
84
255
192
84
255
204
102
255
204
102
102
51
0
204
102
51
255
174
76
255
204
102
255
204
51
255
204
102
255
174
76
255
192
84
255
192
84
255
192
84
255
153
51
255
204
102
255
204
102
255
174
76
255
204
102
255
204
102
255
204
153
255
204
51
255
204
102
255
204
102
255
204
102
255
174
76
255
192
84
255
192
84
255
174
76
255
204
102
255
204
102
255
204
102
255
174
76
255
204
102
255
204
102
255
204
102
255
204
102
255
174
76
255
204
102
255
204
102
255
192
84
255
192
84
255
192
84
255
204
102
255
204
102
255
204
102
255
174
76
255
204
102
255
204
102
255
204
51
255
192
84
255
192
84
255
204
102
255
204
102
102
51
0
204
102
51
255
174
76
255
204
102
255
204
51
255
204
102
255
174
76
255
192
84
255
192
84
255
192
84
255
153
51
255
204
102
255
204
102
255
174
76
255
204
102
255
204
102
255
204
153
255
204
51
255
204
102
255
204
102
255
204
102
255
174
76
255
192
84
255
192
84
255
174
76
255
204
102
255
204
102
255
204
102
255
174
76
255
204
102
255
204
153
255
204
102
255
204
102
255
174
76
255
204
102
255
204
102
255
192
84
255
192
84
255
192
84
255
204
102
255
204
102
255
204
102
255
174
76
255
204
102
255
204
102
255
204
51
255
192
84
255
192
84
255
204
102
255
204
102
102
51
0
204
102
51
255
174
76
255
204
102
255
204
51
255
204
102
255
174
76
255
192
84
255
192
84
255
192
84
255
153
51
255
204
102
255
204
102
255
174
76
255
204
102
255
204
102
255
204
153
255
204
51
255
204
102
255
204
102
255
204
102
255
174
76
255
192
84
255
192
84
255
174
76
255
204
102
255
204
102
255
204
102
255
174
76
255
204
102
255
204
153
255
204
102
255
204
102
255
174
76
255
204
102
255
204
102
255
204
102
255
192
84
255
192
84
255
204
102
255
204
102
255
204
102
255
174
76
255
204
102
255
204
102
255
204
51
255
192
84
255
192
84
255
204
102
255
204
102
102
51
0
204
102
51
255
174
76
255
204
102
255
204
51
255
204
102
255
174
76
255
192
84
255
192
84
255
192
84
255
153
51
255
204
102
255
204
102
255
174
76
255
204
102
255
204
102
255
204
153
255
204
51
255
204
102
255
204
102
255
204
102
255
174
76
255
192
84
255
192
84
255
174
76
255
204
102
255
204
102
255
204
102
255
174
76
255
204
102
255
204
153
255
204
102
255
204
102
255
174
76
255
204
102
255
204
102
255
204
102
255
192
84
255
192
84
255
204
102
255
204
102
255
204
102
255
174
76
255
204
102
255
204
102
255
204
51
255
192
84
255
192
84
255
204
102
255
204
102
102
51
0
204
102
51
255
174
76
255
204
102
255
204
51
255
204
102
255
204
102
255
174
76
255
192
84
255
192
84
255
153
51
255
204
102
255
204
102
255
174
76
255
204
102
255
204
102
255
204
153
255
204
51
255
204
102
255
204
102
255
204
102
255
174
76
255
192
84
255
192
84
255
174
76
255
204
102
255
204
102
255
204
102
255
174
76
255
204
102
255
204
153
255
204
102
255
204
102
255
174
76
255
204
102
255
204
102
255
204
102
255
192
84
255
192
84
255
204
102
255
204
102
255
204
102
255
174
76
255
204
102
255
204
102
255
204
51
255
192
84
255
192
84
255
204
102
255
204
102
102
51
0
204
102
51
255
174
76
255
204
102
255
204
51
255
204
102
255
204
102
255
174
76
255
192
84
255
192
84
255
153
51
255
204
102
255
204
102
255
174
76
255
204
102
255
204
102
255
204
153
255
204
51
255
204
102
255
204
102
255
204
102
255
174
76
255
192
84
255
192
84
255
174
76
255
204
102
255
204
102
255
204
102
255
174
76
255
204
102
255
204
153
255
204
102
255
204
102
255
174
76
255
204
102
255
204
102
255
204
102
255
192
84
255
192
84
255
204
102
255
204
102
255
204
102
255
174
76
255
204
102
255
204
102
255
204
51
255
192
84
255
192
84
255
204
102
255
204
102
102
51
0
204
102
51
255
174
76
255
204
102
255
204
51
255
204
102
255
204
102
255
174
76
255
192
84
255
192
84
255
153
51
255
204
102
255
204
102
255
204
102
255
174
76
255
204
102
255
204
153
255
204
51
255
204
102
255
204
102
255
204
102
255
174
76
255
192
84
255
192
84
255
174
76
255
204
102
255
204
102
255
204
102
255
174
76
255
204
102
255
204
153
255
204
102
255
204
102
255
174
76
255
204
102
255
204
102
255
204
102
255
192
84
255
192
84
255
204
102
255
204
102
255
204
102
255
174
76
255
204
102
255
204
102
255
204
51
255
192
84
255
192
84
255
204
102
255
204
102
102
51
0
204
102
51
255
174
76
255
204
102
255
204
51
255
204
102
255
204
102
255
174
76
255
192
84
255
192
84
255
153
51
255
204
102
255
204
102
255
204
102
255
174
76
255
204
102
255
204
153
255
204
51
255
204
102
255
204
102
255
204
102
255
204
102
255
174
76
255
192
84
255
192
84
255
174
76
255
204
102
255
204
102
255
174
76
255
204
102
255
204
153
255
204
102
255
204
102
255
174
76
255
204
102
255
204
102
255
204
102
255
192
84
255
192
84
255
204
102
255
204
102
255
204
102
255
174
76
255
204
102
255
204
102
255
204
51
255
192
84
255
192
84
255
204
102
255
204
102
102
51
0
204
102
51
255
174
76
255
204
102
255
204
51
255
204
102
255
204
102
255
174
76
255
192
84
255
192
84
255
153
51
255
204
102
255
204
102
255
204
102
255
174
76
255
204
102
255
204
153
255
204
51
255
204
102
255
204
102
255
204
102
255
204
102
255
174
76
255
192
84
255
192
84
255
174
76
255
204
102
255
204
102
255
174
76
255
204
102
255
204
153
255
204
102
255
204
102
255
174
76
255
204
102
255
204
102
255
204
102
255
192
84
255
192
84
255
204
102
255
204
102
255
204
102
255
174
76
255
204
102
255
204
102
255
204
51
255
192
84
255
192
84
255
204
102
255
204
102
102
51
0
204
102
51
255
174
76
255
204
102
255
204
51
255
204
102
255
204
102
255
174
76
255
192
84
255
192
84
255
153
51
255
204
102
255
204
102
255
204
102
255
174
76
255
204
102
255
204
153
255
204
51
255
204
102
255
204
102
255
204
102
255
204
102
255
174
76
255
192
84
255
192
84
255
174
76
255
204
102
255
204
102
255
174
76
255
204
102
255
204
153
255
204
102
255
204
102
255
174
76
255
204
102
255
204
102
255
204
102
255
192
84
255
192
84
255
204
102
255
204
102
255
204
102
255
174
76
255
204
102
255
204
102
255
204
51
255
192
84
255
192
84
255
204
102
255
204
102
